<svg xmlns="http://www.w3.org/2000/svg" viewBox="0 0 64 64" fill="none">
  <g stroke="currentColor" stroke-width="3.8" stroke-linecap="round" stroke-linejoin="round">
    <path d="M29.5 12.5c-1.2-3.2-5.7-2.7-6.1.7l-1.2 14.2-4.6 8.3-6.3 4.1c-2.4 1.6-2 5.3.6 6.4l8.8 3.8 8.5-10.2 2.8-7.1-2.5-20.2Z"/>
    <path d="M34.5 12.5c1.2-3.2 5.7-2.7 6.1.7l1.2 14.2 4.6 8.3 6.3 4.1c2.4 1.6 2 5.3-.6 6.4L43.3 50l-8.5-10.2-2.8-7.1 2.5-20.2Z"/>
    <path d="M29.5 12.5 32 29l2.5-16.5"/>
    <path d="m20.7 50-4.4 5.2"/>
    <path d="m43.3 50 4.4 5.2"/>
    <path d="M25.5 44.3 32 49l6.5-4.7"/>
  </g>
</svg>